<svg xmlns="http://www.w3.org/2000/svg" width="1896" height="1242" viewBox="0 0 1896 1242" role="img" aria-labelledby="map-title map-desc">
<title id="map-title">Health hub: 24/7 MCP endpoint for Grok Bot (step 1 ring hub, step 2 iOS push)</title>
<desc id="map-desc">20 个节点，19 条依赖。完整说明与验证记录在地图文档中。</desc>
<defs><marker id="arrow" viewBox="0 0 8 8" refX="7" refY="4" markerWidth="6" markerHeight="6" orient="auto-start-reverse"><path d="M0 0 L8 4 L0 8 Z" fill="#8995a5"/></marker></defs>
<rect width="1896" height="1242" fill="#ffffff"/>
<g font-family="Segoe UI, Microsoft YaHei, Noto Sans CJK SC, sans-serif">
<rect x="8" y="10" width="1880" height="130" rx="5" fill="#fafbfc"/>
<text x="16" y="25" font-size="12" fill="#6a7687">触发与后台</text>
<rect x="8" y="244" width="1880" height="130" rx="5" fill="#fafbfc"/>
<text x="16" y="259" font-size="12" fill="#6a7687">客户端与部署</text>
<rect x="8" y="556" width="1880" height="130" rx="5" fill="#fafbfc"/>
<text x="16" y="571" font-size="12" fill="#6a7687">服务</text>
<rect x="8" y="816" width="1880" height="130" rx="5" fill="#fafbfc"/>
<text x="16" y="831" font-size="12" fill="#6a7687">领域逻辑</text>
<rect x="8" y="1076" width="1880" height="130" rx="5" fill="#fafbfc"/>
<text x="16" y="1091" font-size="12" fill="#6a7687">数据契约与存储</text>
<polyline points="144,930 144,1138" fill="none" stroke="#8995a5" stroke-width="1.4" marker-end="url(#arrow)"/>
<polyline points="96,670 96,722 360,722 360,1034 480,1034 480,1138" fill="none" stroke="#8995a5" stroke-width="1.4" marker-end="url(#arrow)"/>
<polyline points="168,670 168,748 488,748 488,878" fill="none" stroke="#8995a5" stroke-width="1.4" marker-end="url(#arrow)"/>
<polyline points="128,670 128,878" fill="none" stroke="#8995a5" stroke-width="1.4" marker-end="url(#arrow)"/>
<polyline points="120,358 120,436 624,436 624,982 104,982 104,1138" fill="none" stroke="#8995a5" stroke-width="1.4" marker-end="url(#arrow)"/>
<polyline points="400,358 400,410 88,410 88,618" fill="none" stroke="#8995a5" stroke-width="1.4" marker-end="url(#arrow)"/>
<polyline points="720,358 720,462 160,462 160,618" fill="none" stroke="#8995a5" stroke-width="1.4" marker-end="url(#arrow)"/>
<polyline points="808,930 808,1008 192,1008 192,1138" fill="none" stroke="#8995a5" stroke-width="1.4" marker-end="url(#arrow)"/>
<polyline points="408,670 408,722 800,722 800,878" fill="none" stroke="#8995a5" stroke-width="1.4" marker-end="url(#arrow)"/>
<polyline points="1032,358 1032,488 384,488 384,618" fill="none" stroke="#8995a5" stroke-width="1.4" marker-end="url(#arrow)"/>
<polyline points="1352,358 1352,410 464,410 464,618" fill="none" stroke="#8995a5" stroke-width="1.4" marker-end="url(#arrow)"/>
<polyline points="832,670 832,774 648,774 648,982 776,982 776,1138" fill="none" stroke="#8995a5" stroke-width="1.4" marker-end="url(#arrow)"/>
<polyline points="1128,930 1128,982 880,982 880,1138" fill="none" stroke="#8995a5" stroke-width="1.4" marker-end="url(#arrow)"/>
<polyline points="512,670 512,748 1120,748 1120,878" fill="none" stroke="#8995a5" stroke-width="1.4" marker-end="url(#arrow)"/>
<polyline points="1200,670 1200,722 1256,722 1256,982 1200,982 1200,1138" fill="none" stroke="#8995a5" stroke-width="1.4" marker-end="url(#arrow)"/>
<polyline points="1648,358 1648,410 1400,410 1400,722 1400,722 1400,878" fill="none" stroke="#8995a5" stroke-width="1.4" marker-end="url(#arrow)"/>
<polyline points="1752,358 1752,514 536,514 536,618" fill="none" stroke="#8995a5" stroke-width="1.4" marker-end="url(#arrow)"/>
<polyline points="112,124 112,176 1704,176 1704,306" fill="none" stroke="#8995a5" stroke-width="1.4" marker-end="url(#arrow)"/>
<polyline points="216,124 216,202 1504,202 1504,722 1504,722 1504,878" fill="none" stroke="#8995a5" stroke-width="1.4" marker-end="url(#arrow)"/>
<g data-node="summary-json"><title>summary JSON (build_summary) · ■ 已验证</title>
<rect x="16" y="1138" width="264" height="52" rx="5" fill="#e9f5ee" stroke="#67a883" stroke-width="1.5"/>
<text x="148" y="1159" text-anchor="middle" font-size="14" fill="#286247">summary JSON (build_summary)</text>
<text x="148" y="1178" text-anchor="middle" font-size="11" fill="#286247">■ 已验证</text></g>
<g data-node="hub-store"><title>hub store (SQLite snapshots) · ■ 已验证</title>
<rect x="336" y="1138" width="280" height="52" rx="5" fill="#e9f5ee" stroke="#67a883" stroke-width="1.5"/>
<text x="476" y="1159" text-anchor="middle" font-size="14" fill="#286247">▤ hub store (SQLite snapshots)</text>
<text x="476" y="1178" text-anchor="middle" font-size="11" fill="#286247">■ 已验证</text></g>
<g data-node="agent-status"><title>agent status doc (oura-summary::agent) · ■ 已验证</title>
<rect x="16" y="878" width="296" height="52" rx="5" fill="#e9f5ee" stroke="#67a883" stroke-width="1.5"/>
<text x="164" y="899" text-anchor="middle" font-size="14" fill="#286247">agent status doc (oura-summary:…</text>
<text x="164" y="918" text-anchor="middle" font-size="11" fill="#286247">■ 已验证</text></g>
<g data-node="mcp-jsonrpc"><title>MCP JSON-RPC (stateless) · ■ 已验证</title>
<rect x="368" y="878" width="232" height="52" rx="5" fill="#e9f5ee" stroke="#67a883" stroke-width="1.5"/>
<text x="484" y="899" text-anchor="middle" font-size="14" fill="#286247">MCP JSON-RPC (stateless)</text>
<text x="484" y="918" text-anchor="middle" font-size="11" fill="#286247">■ 已验证</text></g>
<g data-node="hub-http"><title>oura-hub server (axum) · ■ 已验证</title>
<rect x="16" y="618" width="232" height="52" rx="5" fill="#e9f5ee" stroke="#67a883" stroke-width="1.5"/>
<text x="132" y="639" text-anchor="middle" font-size="14" fill="#286247">◆ oura-hub server (axum)</text>
<text x="132" y="658" text-anchor="middle" font-size="11" fill="#286247">■ 已验证</text></g>
<g data-node="cli-push"><title>oura push (CLI) · ⠿ 开发中</title>
<rect x="16" y="306" width="200" height="52" rx="5" fill="#fff4d9" stroke="#c48c24" stroke-width="1.5"/>
<text x="116" y="327" text-anchor="middle" font-size="14" fill="#805910">oura push (CLI)</text>
<text x="116" y="346" text-anchor="middle" font-size="11" fill="#805910">⠿ 开发中</text></g>
<g data-node="deploy"><title>Dockerfile + compose + docs · ■ 已验证</title>
<rect x="272" y="306" width="256" height="52" rx="5" fill="#e9f5ee" stroke="#67a883" stroke-width="1.5"/>
<text x="400" y="327" text-anchor="middle" font-size="14" fill="#286247">Dockerfile + compose + docs</text>
<text x="400" y="346" text-anchor="middle" font-size="11" fill="#286247">■ 已验证</text></g>
<g data-node="grok-wiring"><title>Grok Bot wiring + curl check · ■ 已验证</title>
<rect x="584" y="306" width="264" height="52" rx="5" fill="#e9f5ee" stroke="#67a883" stroke-width="1.5"/>
<text x="716" y="327" text-anchor="middle" font-size="14" fill="#286247">Grok Bot wiring + curl check</text>
<text x="716" y="346" text-anchor="middle" font-size="11" fill="#286247">■ 已验证</text></g>
<g data-node="ios-hub-payload"><title>iOS HubPayload (overlay models on FFI JSON) · ■ 已验证</title>
<rect x="656" y="878" width="296" height="52" rx="5" fill="#e9f5ee" stroke="#67a883" stroke-width="1.5"/>
<text x="804" y="899" text-anchor="middle" font-size="14" fill="#286247">iOS HubPayload (overlay models …</text>
<text x="804" y="918" text-anchor="middle" font-size="11" fill="#286247">■ 已验证</text></g>
<g data-node="ios-hub-pusher"><title>iOS HubPusher (URLSession, Keychain token) · ■ 已验证</title>
<rect x="304" y="618" width="312" height="52" rx="5" fill="#e9f5ee" stroke="#67a883" stroke-width="1.5"/>
<text x="460" y="639" text-anchor="middle" font-size="14" fill="#286247">◆ iOS HubPusher (URLSession, Keyc…</text>
<text x="460" y="658" text-anchor="middle" font-size="11" fill="#286247">■ 已验证</text></g>
<g data-node="ios-hooks-push"><title>AppHooks + RootView wiring · ■ 已验证</title>
<rect x="904" y="306" width="248" height="52" rx="5" fill="#e9f5ee" stroke="#67a883" stroke-width="1.5"/>
<text x="1028" y="327" text-anchor="middle" font-size="14" fill="#286247">AppHooks + RootView wiring</text>
<text x="1028" y="346" text-anchor="middle" font-size="11" fill="#286247">■ 已验证</text></g>
<g data-node="ios-hub-settings"><title>Settings: Health hub section · ■ 已验证</title>
<rect x="1208" y="306" width="280" height="52" rx="5" fill="#e9f5ee" stroke="#67a883" stroke-width="1.5"/>
<text x="1348" y="327" text-anchor="middle" font-size="14" fill="#286247">▣ Settings: Health hub section</text>
<text x="1348" y="346" text-anchor="middle" font-size="11" fill="#286247">■ 已验证</text></g>
<g data-node="store-replication"><title>oura-store::replication (export/import rows) · ■ 已验证</title>
<rect x="672" y="1138" width="312" height="52" rx="5" fill="#e9f5ee" stroke="#67a883" stroke-width="1.5"/>
<text x="828" y="1159" text-anchor="middle" font-size="14" fill="#286247">▤ oura-store::replication (export…</text>
<text x="828" y="1178" text-anchor="middle" font-size="11" fill="#286247">■ 已验证</text></g>
<g data-node="hub-events"><title>hub /ingest/events + /export/events (ring replica) · ■ 已验证</title>
<rect x="672" y="618" width="312" height="52" rx="5" fill="#e9f5ee" stroke="#67a883" stroke-width="1.5"/>
<text x="828" y="639" text-anchor="middle" font-size="14" fill="#286247">◆ hub /ingest/events + /export/ev…</text>
<text x="828" y="658" text-anchor="middle" font-size="11" fill="#286247">■ 已验证</text></g>
<g data-node="core-export-ffi"><title>oura-core exportBatchJson · ■ 已验证</title>
<rect x="1008" y="878" width="240" height="52" rx="5" fill="#e9f5ee" stroke="#67a883" stroke-width="1.5"/>
<text x="1128" y="899" text-anchor="middle" font-size="14" fill="#286247">oura-core exportBatchJson</text>
<text x="1128" y="918" text-anchor="middle" font-size="11" fill="#286247">■ 已验证</text></g>
<g data-node="hub-health-store"><title>hub health_samples table + watch summary · ■ 已验证</title>
<rect x="1040" y="1138" width="312" height="52" rx="5" fill="#e9f5ee" stroke="#67a883" stroke-width="1.5"/>
<text x="1196" y="1159" text-anchor="middle" font-size="14" fill="#286247">▤ hub health_samples table + watc…</text>
<text x="1196" y="1178" text-anchor="middle" font-size="11" fill="#286247">■ 已验证</text></g>
<g data-node="hub-health-routes"><title>hub /ingest/health + get_watch, get_health_samples · ■ 已验证</title>
<rect x="1040" y="618" width="312" height="52" rx="5" fill="#e9f5ee" stroke="#67a883" stroke-width="1.5"/>
<text x="1196" y="639" text-anchor="middle" font-size="14" fill="#286247">◆ hub /ingest/health + get_watch,…</text>
<text x="1196" y="658" text-anchor="middle" font-size="11" fill="#286247">■ 已验证</text></g>
<g data-node="ios-health-reader"><title>iOS HealthReader (anchored queries, encoder) · ■ 已验证</title>
<rect x="1304" y="878" width="296" height="52" rx="5" fill="#e9f5ee" stroke="#67a883" stroke-width="1.5"/>
<text x="1452" y="899" text-anchor="middle" font-size="14" fill="#286247">iOS HealthReader (anchored quer…</text>
<text x="1452" y="918" text-anchor="middle" font-size="11" fill="#286247">■ 已验证</text></g>
<g data-node="ios-health-push"><title>HubPusher.pushHealth + Settings toggle · ■ 已验证</title>
<rect x="1544" y="306" width="312" height="52" rx="5" fill="#e9f5ee" stroke="#67a883" stroke-width="1.5"/>
<text x="1700" y="327" text-anchor="middle" font-size="14" fill="#286247">▣ HubPusher.pushHealth + Settings…</text>
<text x="1700" y="346" text-anchor="middle" font-size="11" fill="#286247">■ 已验证</text></g>
<g data-node="ios-health-background"><title>HealthKit background delivery (observer + wake) · ■ 已验证</title>
<rect x="16" y="72" width="296" height="52" rx="5" fill="#e9f5ee" stroke="#67a883" stroke-width="1.5"/>
<text x="164" y="93" text-anchor="middle" font-size="14" fill="#286247">HealthKit background delivery (…</text>
<text x="164" y="112" text-anchor="middle" font-size="11" fill="#286247">■ 已验证</text></g>
</g></svg>