<svg xmlns="http://www.w3.org/2000/svg" width="1040" height="696" viewBox="0 0 1040 696" role="img" aria-labelledby="map-title map-desc">
<title id="map-title">iOS frontend polish for daily personal use</title>
<desc id="map-desc">7 个节点，6 条依赖。完整说明与验证记录在地图文档中。</desc>
<defs><marker id="arrow" viewBox="0 0 8 8" refX="7" refY="4" markerWidth="6" markerHeight="6" orient="auto-start-reverse"><path d="M0 0 L8 4 L0 8 Z" fill="#8995a5"/></marker></defs>
<rect width="1040" height="696" fill="#ffffff"/>
<g font-family="Segoe UI, Microsoft YaHei, Noto Sans CJK SC, sans-serif">
<rect x="8" y="10" width="1024" height="130" rx="5" fill="#fafbfc"/>
<text x="16" y="25" font-size="12" fill="#6a7687">Build, check, install</text>
<rect x="8" y="322" width="1024" height="130" rx="5" fill="#fafbfc"/>
<text x="16" y="337" font-size="12" fill="#6a7687">Screens &amp; copy</text>
<rect x="8" y="530" width="1024" height="130" rx="5" fill="#fafbfc"/>
<text x="16" y="545" font-size="12" fill="#6a7687">Assets &amp; launch</text>
<polyline points="56,124 56,176 224,176 224,488 120,488 120,592" fill="none" stroke="#8995a5" stroke-width="1.4" marker-end="url(#arrow)"/>
<polyline points="88,124 88,202 264,202 264,488 376,488 376,592" fill="none" stroke="#8995a5" stroke-width="1.4" marker-end="url(#arrow)"/>
<polyline points="112,124 112,384" fill="none" stroke="#8995a5" stroke-width="1.4" marker-end="url(#arrow)"/>
<polyline points="128,124 128,228 384,228 384,384" fill="none" stroke="#8995a5" stroke-width="1.4" marker-end="url(#arrow)"/>
<polyline points="168,124 168,254 648,254 648,384" fill="none" stroke="#8995a5" stroke-width="1.4" marker-end="url(#arrow)"/>
<polyline points="200,124 200,280 904,280 904,384" fill="none" stroke="#8995a5" stroke-width="1.4" marker-end="url(#arrow)"/>
<g data-node="launch-screen"><title>Launch screen colour · ⠿ 开发中</title>
<rect x="16" y="592" width="200" height="52" rx="5" fill="#fff4d9" stroke="#c48c24" stroke-width="1.5"/>
<text x="116" y="613" text-anchor="middle" font-size="14" fill="#805910">Launch screen colour</text>
<text x="116" y="632" text-anchor="middle" font-size="11" fill="#805910">⠿ 开发中</text></g>
<g data-node="app-icon"><title>App icon refresh · · 待开发</title>
<rect x="272" y="592" width="200" height="52" rx="5" fill="#f5f7fa" stroke="#98a3b2" stroke-width="1.5" stroke-dasharray="5 4"/>
<text x="372" y="613" text-anchor="middle" font-size="14" fill="#566477">App icon refresh</text>
<text x="372" y="632" text-anchor="middle" font-size="11" fill="#566477">· 待开发</text></g>
<g data-node="plain-copy"><title>Plain-language copy · ⠿ 开发中</title>
<rect x="16" y="384" width="200" height="52" rx="5" fill="#fff4d9" stroke="#c48c24" stroke-width="1.5"/>
<text x="116" y="405" text-anchor="middle" font-size="14" fill="#805910">Plain-language copy</text>
<text x="116" y="424" text-anchor="middle" font-size="11" fill="#805910">⠿ 开发中</text></g>
<g data-node="advanced-page"><title>Diagnostics → Advanced · ⠿ 开发中</title>
<rect x="272" y="384" width="216" height="52" rx="5" fill="#fff4d9" stroke="#c48c24" stroke-width="1.5"/>
<text x="380" y="405" text-anchor="middle" font-size="14" fill="#805910">Diagnostics → Advanced</text>
<text x="380" y="424" text-anchor="middle" font-size="11" fill="#805910">⠿ 开发中</text></g>
<g data-node="loading-skeleton"><title>Loading placeholders · · 待开发</title>
<rect x="544" y="384" width="200" height="52" rx="5" fill="#f5f7fa" stroke="#98a3b2" stroke-width="1.5" stroke-dasharray="5 4"/>
<text x="644" y="405" text-anchor="middle" font-size="14" fill="#566477">Loading placeholders</text>
<text x="644" y="424" text-anchor="middle" font-size="11" fill="#566477">· 待开发</text></g>
<g data-node="large-text"><title>Large text layouts · · 待开发</title>
<rect x="800" y="384" width="200" height="52" rx="5" fill="#f5f7fa" stroke="#98a3b2" stroke-width="1.5" stroke-dasharray="5 4"/>
<text x="900" y="405" text-anchor="middle" font-size="14" fill="#566477">Large text layouts</text>
<text x="900" y="424" text-anchor="middle" font-size="11" fill="#566477">· 待开发</text></g>
<g data-node="verify-install"><title>Simulator check + phone · · 待开发</title>
<rect x="16" y="72" width="224" height="52" rx="5" fill="#f5f7fa" stroke="#98a3b2" stroke-width="1.5" stroke-dasharray="5 4"/>
<text x="128" y="93" text-anchor="middle" font-size="14" fill="#566477">Simulator check + phone</text>
<text x="128" y="112" text-anchor="middle" font-size="11" fill="#566477">· 待开发</text></g>
</g></svg>